<?xml version="1.0" encoding="utf-8"?>
<svg viewBox="0 0 192.35 29.5" xmlns="http://www.w3.org/2000/svg">
  <g transform="matrix(1, 0, 0, 1, -3.119, -15.955)">
    <path id="path558" style="fill:#100f0d;fill-opacity:1;fill-rule:evenodd;stroke:none" d="M 125.736 37.102 L 126.634 38.079 L 127.528 38.969 L 128.515 39.945 L 129.68 40.832 L 130.846 41.632 L 132.101 42.434 L 133.444 43.144 L 134.789 43.766 L 136.225 44.299 L 137.748 44.742 L 139.271 45.01 L 140.884 45.274 L 142.586 45.274 L 144.2 45.186 L 145.903 45.01 L 147.696 44.564 L 150.834 43.321 L 153.344 41.455 L 155.135 39.324 L 156.39 36.925 L 157.198 34.526 L 157.555 32.215 L 157.645 30.171 L 157.376 28.482 L 156.928 26.974 L 156.121 25.286 L 154.956 23.507 L 153.521 21.731 L 151.73 20.042 L 149.578 18.532 L 146.98 17.29 L 144.111 16.401 L 143.036 16.224 L 141.871 16.046 L 140.705 15.955 L 139.45 15.955 L 138.285 16.046 L 137.03 16.134 L 135.775 16.311 L 134.52 16.489 L 133.265 16.844 L 131.921 17.2 L 130.665 17.555 L 129.411 18.087 L 128.155 18.622 L 126.903 19.242 L 125.646 19.955 L 124.481 20.754 L 122.689 22.175 L 120.898 23.775 L 119.194 25.729 L 117.401 27.685 L 115.698 29.816 L 113.994 31.95 L 112.381 34.08 L 110.768 36.035 L 109.154 37.814 L 107.54 39.411 L 106.018 40.654 L 104.584 41.545 L 103.15 41.989 L 101.804 41.989 L 100.46 41.367 L 99.205 40.121 L 98.846 40.477 L 99.385 40.922 L 99.923 41.367 L 100.55 41.81 L 101.266 42.165 L 101.984 42.434 L 102.88 42.611 L 103.776 42.699 L 104.763 42.52 L 105.928 42.255 L 107.094 41.722 L 108.349 40.922 L 109.694 39.945 L 111.125 38.614 L 112.65 36.925 L 114.353 34.969 L 116.056 32.57 L 117.131 31.15 L 118.118 29.727 L 119.103 28.482 L 120.179 27.329 L 121.166 26.262 L 122.151 25.286 L 123.048 24.396 L 124.035 23.597 L 125.199 22.709 L 126.364 21.82 L 127.44 21.107 L 128.605 20.486 L 129.591 19.865 L 130.665 19.421 L 131.651 18.976 L 132.729 18.622 L 133.624 18.266 L 134.61 18.087 L 135.506 17.822 L 136.313 17.732 L 137.209 17.555 L 137.926 17.555 L 138.734 17.466 L 140.436 17.466 L 141.513 17.555 L 142.766 17.732 L 143.933 17.911 L 145.186 18.266 L 146.441 18.71 L 147.788 19.155 L 149.04 19.776 L 150.206 20.486 L 151.371 21.376 L 152.446 22.264 L 153.521 23.42 L 154.33 24.575 L 155.135 25.906 L 155.763 27.417 L 156.213 29.106 L 156.481 31.95 L 156.213 34.436 L 155.315 36.657 L 154.059 38.522 L 152.535 40.121 L 150.834 41.367 L 149.13 42.255 L 147.518 42.876 L 146.71 43.054 L 145.814 43.321 L 144.828 43.499 L 143.753 43.676 L 142.586 43.854 L 140.078 43.854 L 138.734 43.676 L 137.299 43.499 L 135.775 43.054 L 134.251 42.611 L 132.638 41.9 L 131.024 41.012 L 129.321 39.945 L 127.528 38.614 L 125.736 37.102 L 125.736 37.102"/>
    <path id="path560" style="fill:#100f0d;fill-opacity:1;fill-rule:evenodd;stroke:none" d="M 72.225 24.396 L 71.33 23.42 L 70.434 22.53 L 69.448 21.554 L 68.283 20.666 L 67.116 19.865 L 65.861 19.065 L 64.518 18.354 L 63.173 17.732 L 61.74 17.2 L 60.216 16.756 L 58.691 16.401 L 57.079 16.224 L 55.375 16.134 L 53.761 16.224 L 52.059 16.401 L 50.268 16.844 L 47.13 18.177 L 44.62 19.955 L 42.826 22.175 L 41.571 24.575 L 40.765 26.974 L 40.406 29.284 L 40.316 31.417 L 40.586 33.102 L 41.034 34.614 L 41.841 36.302 L 43.006 38.079 L 44.44 39.856 L 46.233 41.545 L 48.384 42.966 L 50.984 44.209 L 53.851 45.01 L 54.928 45.186 L 56.093 45.365 L 57.258 45.452 L 59.678 45.452 L 60.933 45.365 L 62.186 45.186 L 63.441 45.01 L 64.696 44.654 L 65.953 44.299 L 67.208 43.944 L 68.461 43.411 L 69.715 42.876 L 70.97 42.255 L 72.225 41.545 L 73.391 40.744 L 75.184 39.324 L 76.976 37.722 L 78.769 35.77 L 80.473 33.814 L 82.175 31.681 L 83.879 29.549 L 85.583 27.417 L 87.194 25.464 L 88.808 23.685 L 90.421 22.087 L 91.945 20.844 L 93.379 19.955 L 94.814 19.51 L 96.159 19.599 L 97.501 20.221 L 98.756 21.464 L 99.115 21.107 L 98.578 20.666 L 98.041 20.131 L 97.414 19.776 L 96.695 19.332 L 95.89 19.065 L 95.081 18.887 L 94.095 18.887 L 93.11 18.976 L 92.035 19.242 L 90.869 19.776 L 89.615 20.576 L 88.27 21.641 L 86.838 22.975 L 85.313 24.662 L 83.61 26.619 L 81.905 29.017 L 80.831 30.439 L 79.845 31.772 L 78.859 33.016 L 77.784 34.171 L 76.799 35.236 L 75.811 36.211 L 74.916 37.19 L 73.93 37.99 L 72.764 38.879 L 71.598 39.679 L 70.524 40.389 L 69.356 41.1 L 68.371 41.632 L 67.296 42.079 L 66.221 42.52 L 65.236 42.876 L 64.339 43.144 L 63.354 43.411 L 62.456 43.589 L 61.56 43.766 L 60.754 43.854 L 59.946 43.944 L 59.14 44.031 L 57.436 44.031 L 56.361 43.944 L 55.196 43.766 L 53.941 43.589 L 52.685 43.231 L 51.433 42.876 L 50.178 42.344 L 48.923 41.722 L 47.756 41.012 L 46.59 40.212 L 45.516 39.234 L 44.44 38.169 L 43.634 36.925 L 42.826 35.591 L 42.199 34.08 L 41.751 32.392 L 41.484 29.549 L 41.751 27.061 L 42.648 24.841 L 43.903 22.975 L 45.426 21.376 L 47.04 20.131 L 48.741 19.242 L 50.355 18.622 L 51.163 18.354 L 52.059 18.177 L 53.046 17.999 L 54.12 17.822 L 55.286 17.644 L 56.451 17.555 L 57.795 17.644 L 59.14 17.732 L 60.575 17.999 L 62.099 18.354 L 63.621 18.887 L 65.236 19.599 L 66.938 20.486 L 68.641 21.554 L 70.434 22.887 L 72.225 24.396 L 72.225 24.396"/>
    <path id="path562" style="fill:#100f0d;fill-opacity:1;fill-rule:evenodd;stroke:none" d="M 81.816 40.744 L 82.265 41.367 L 82.803 41.81 L 83.43 42.165 L 84.056 42.344 L 84.685 42.344 L 85.401 42.165 L 86.12 41.9 L 86.838 41.455 L 87.823 40.654 L 89.256 39.501 L 90.869 37.99 L 92.663 36.302 L 94.455 34.436 L 96.246 32.66 L 97.86 30.794 L 99.205 29.194 L 101.088 26.974 L 102.88 25.017 L 104.494 23.42 L 105.928 22.175 L 107.363 21.107 L 108.526 20.31 L 109.694 19.689 L 110.768 19.332 L 111.665 19.155 L 112.56 19.155 L 113.368 19.242 L 114.084 19.421 L 114.713 19.776 L 115.34 20.131 L 115.878 20.576 L 116.325 21.021 L 115.965 21.376 L 114.891 20.397 L 113.726 20.042 L 112.381 20.131 L 110.948 20.754 L 109.423 21.731 L 107.809 23.065 L 106.198 24.662 L 104.494 26.44 L 102.701 28.395 L 100.908 30.439 L 99.115 32.482 L 97.323 34.526 L 95.62 36.48 L 93.828 38.255 L 92.215 39.766 L 90.601 41.012 L 89.884 41.455 L 88.898 42.079 L 87.733 42.611 L 86.388 42.966 L 85.043 43.144 L 83.699 42.966 L 82.355 42.344 L 81.278 41.19 L 81.816 40.744 L 81.816 40.744"/>
    <path id="path564" style="fill:#100f0d;fill-opacity:1;fill-rule:evenodd;stroke:none" d="M 5.183 29.994 L 9.125 29.906 L 13.518 29.816 L 18.178 29.816 L 23.198 29.727 L 28.485 29.639 L 34.041 29.639 L 39.87 29.549 L 58.513 29.549 L 65.055 29.46 L 99.115 29.46 L 106.018 29.549 L 133.175 29.549 L 139.718 29.639 L 152.446 29.639 L 158.543 29.727 L 164.368 29.727 L 170.015 29.816 L 175.393 29.816 L 180.501 29.906 L 185.253 29.906 L 189.645 29.994 L 194.305 29.994 L 194.843 30.171 L 195.201 30.349 L 195.38 30.526 L 195.47 30.704 L 195.201 30.882 L 194.664 30.971 L 193.768 31.061 L 188.3 31.15 L 182.564 31.239 L 176.559 31.326 L 170.374 31.417 L 163.92 31.505 L 115.429 31.505 L 108.349 31.417 L 94.095 31.417 L 87.106 31.326 L 80.204 31.239 L 73.48 31.239 L 66.848 31.15 L 60.394 31.15 L 54.12 31.061 L 42.199 31.061 L 36.733 30.971 L 7.691 30.971 L 5.183 31.061 L 4.374 31.061 L 3.746 30.971 L 3.3 30.794 L 3.119 30.526 L 3.209 30.349 L 3.569 30.171 L 4.195 30.084 L 5.183 29.994 L 5.183 29.994"/>
    <path id="path566" style="fill:#100f0d;fill-opacity:1;fill-rule:evenodd;stroke:none" d="M 71.956 40.654 L 72.675 40.477 L 73.211 41.19 L 73.749 41.722 L 74.289 42.079 L 74.916 42.255 L 75.633 42.344 L 76.349 42.255 L 77.066 41.9 L 77.873 41.455 L 78.859 40.654 L 80.293 39.501 L 81.905 37.99 L 83.699 36.302 L 85.493 34.436 L 87.284 32.66 L 88.898 30.794 L 90.331 29.194 L 92.215 26.974 L 93.918 25.017 L 95.531 23.42 L 97.055 22.175 L 98.4 21.107 L 99.654 20.31 L 100.729 19.689 L 101.804 19.332 L 102.79 19.155 L 103.598 19.155 L 104.403 19.242 L 105.121 19.421 L 105.839 19.776 L 106.376 20.131 L 106.913 20.576 L 107.45 21.021 L 107.094 21.376 L 106.018 20.397 L 104.853 20.042 L 103.508 20.131 L 102.074 20.754 L 100.55 21.731 L 98.936 23.065 L 97.233 24.662 L 95.531 26.44 L 93.738 28.395 L 91.945 30.439 L 90.243 32.482 L 88.449 34.526 L 86.656 36.48 L 84.954 38.255 L 83.341 39.766 L 81.728 41.012 L 80.92 41.455 L 79.935 42.079 L 78.68 42.611 L 77.245 43.054 L 75.811 43.144 L 74.378 42.876 L 73.123 42.079 L 71.956 40.654 L 71.956 40.654"/>
    <path id="path568" style="fill:#100f0d;fill-opacity:1;fill-rule:evenodd;stroke:none" d="M 90.869 40.744 L 91.408 41.367 L 91.945 41.81 L 92.483 42.165 L 93.11 42.344 L 93.828 42.344 L 94.455 42.165 L 95.261 41.9 L 95.978 41.455 L 96.964 40.654 L 98.4 39.501 L 100.014 37.99 L 101.804 36.302 L 103.598 34.436 L 105.39 32.66 L 107.004 30.794 L 108.349 29.194 L 110.231 26.974 L 112.023 25.017 L 113.636 23.42 L 115.07 22.175 L 116.504 21.107 L 117.67 20.31 L 118.834 19.689 L 119.911 19.332 L 120.808 19.155 L 121.703 19.155 L 122.51 19.242 L 123.228 19.421 L 123.854 19.776 L 124.481 20.131 L 125.019 20.576 L 125.468 21.021 L 125.109 21.376 L 124.035 20.397 L 122.869 20.042 L 121.525 20.131 L 120.089 20.754 L 118.566 21.731 L 116.953 23.065 L 115.25 24.662 L 113.546 26.44 L 111.844 28.395 L 110.05 30.439 L 108.258 32.482 L 106.466 34.526 L 104.763 36.48 L 102.97 38.255 L 101.356 39.766 L 99.743 41.012 L 99.028 41.455 L 98.041 42.079 L 96.875 42.611 L 95.531 42.966 L 94.186 43.144 L 92.84 42.966 L 91.498 42.344 L 90.421 41.19 L 90.869 40.744 L 90.869 40.744"/>
  </g>
</svg>