<?xml version="1.0" encoding="utf-8"?>
<svg viewBox="0 0 167.3 49.98" xmlns="http://www.w3.org/2000/svg">
  <path id="path26" style="fill:#100f0d;fill-opacity:1;fill-rule:evenodd;stroke:none" d="M 84.505 10.968 L 84.594 10.968 L 84.594 10.877 L 84.505 10.698 L 84.415 10.517 L 84.234 10.428 L 84.144 10.428 L 84.054 10.428 L 83.874 10.248 L 83.604 10.158 L 83.424 10.158 L 83.155 10.338 L 83.155 10.428 L 83.065 10.428 L 83.065 10.517 L 81.895 11.417 L 81.355 12.766 L 81.085 14.383 L 81.085 16.091 L 81.175 16.181 L 81.535 16.181 L 81.535 16.091 L 81.895 14.923 L 82.165 13.575 L 82.614 12.496 L 83.514 11.687 L 84.054 12.676 L 84.325 13.755 L 84.505 14.923 L 84.684 16.002 L 84.684 16.091 L 84.774 16.181 L 84.774 16.272 L 84.954 16.272 L 84.954 16.181 L 85.045 16.091 L 85.045 16.002 L 85.315 14.743 L 85.315 13.395 L 85.045 12.136 L 84.505 10.968 L 84.505 10.968"/>
  <path id="path28" style="fill:#100f0d;fill-opacity:1;fill-rule:evenodd;stroke:none" d="M 1.08 29.576 L 6.03 29.396 L 10.62 29.396 L 14.85 29.666 L 18.809 30.026 L 22.499 30.655 L 25.918 31.465 L 29.158 32.362 L 32.128 33.442 L 35.008 34.701 L 37.708 36.048 L 40.228 37.487 L 42.748 38.925 L 45.178 40.543 L 47.608 42.252 L 49.947 43.96 L 52.377 45.667 L 54.447 47.016 L 56.517 48.183 L 58.407 48.993 L 60.207 49.533 L 62.007 49.802 L 63.625 49.893 L 65.157 49.712 L 66.595 49.442 L 67.947 48.905 L 69.205 48.365 L 70.285 47.556 L 71.275 46.746 L 72.085 45.847 L 72.805 44.858 L 73.345 43.87 L 73.795 42.791 L 74.155 41.172 L 73.885 41.083 L 73.165 41.891 L 72.535 42.971 L 71.545 44.14 L 70.555 45.128 L 69.385 46.027 L 68.215 46.746 L 66.865 47.195 L 65.425 47.556 L 63.895 47.646 L 62.187 47.465 L 60.297 47.106 L 58.317 46.476 L 56.067 45.578 L 53.727 44.498 L 51.117 43.061 L 48.327 41.352 L 45.267 39.285 L 42.028 36.947 L 39.418 35.15 L 36.808 33.621 L 34.198 32.273 L 31.678 31.195 L 29.069 30.385 L 26.549 29.666 L 24.029 29.127 L 21.509 28.767 L 18.989 28.497 L 16.469 28.317 L 13.86 28.227 L 6.21 28.227 L 3.69 28.317 L 1.08 28.317 L 0.18 28.497 L 0 28.857 L 0.45 29.306 L 1.08 29.576 L 1.08 29.576"/>
  <path id="path30" style="fill:#100f0d;fill-opacity:1;fill-rule:evenodd;stroke:none" d="M 45.267 31.373 L 46.527 32.273 L 47.788 33.172 L 49.047 34.071 L 50.397 34.97 L 51.747 35.778 L 53.097 36.498 L 54.537 37.217 L 55.887 37.847 L 57.327 38.386 L 58.767 38.836 L 60.297 39.195 L 61.737 39.375 L 63.265 39.465 L 64.705 39.465 L 66.235 39.285 L 67.767 39.016 L 71.365 37.577 L 73.795 35.42 L 75.235 32.902 L 75.865 30.205 L 75.595 27.328 L 74.785 24.721 L 73.525 22.295 L 71.815 20.407 L 71.185 20.137 L 70.645 20.137 L 70.465 20.317 L 70.735 20.586 L 72.355 21.935 L 73.705 23.912 L 74.785 26.34 L 75.235 29.037 L 74.875 31.733 L 73.615 34.071 L 71.275 36.048 L 67.585 37.217 L 65.967 37.397 L 64.527 37.487 L 62.997 37.487 L 61.557 37.307 L 60.207 37.037 L 58.857 36.677 L 57.507 36.318 L 56.247 35.778 L 54.987 35.15 L 53.727 34.521 L 52.557 33.891 L 51.387 33.172 L 50.217 32.362 L 49.047 31.555 L 47.877 30.745 L 46.798 29.936 L 45.267 31.373 L 45.267 31.373"/>
  <path id="path32" style="fill:#100f0d;fill-opacity:1;fill-rule:evenodd;stroke:none" d="M 45.267 31.373 L 44.368 30.655 L 43.468 29.936 L 42.568 29.216 L 41.668 28.497 L 40.858 27.868 L 40.048 27.238 L 39.238 26.61 L 38.518 25.98 L 37.078 24.991 L 35.548 24.182 L 34.018 23.553 L 32.578 23.103 L 31.138 22.923 L 29.698 22.833 L 28.348 23.013 L 27.179 23.283 L 26.009 23.822 L 24.929 24.542 L 24.119 25.441 L 23.399 26.52 L 22.859 27.778 L 22.499 29.216 L 22.409 30.745 L 22.499 32.543 L 22.769 33.801 L 23.219 34.97 L 23.759 35.868 L 24.569 36.677 L 25.469 37.217 L 26.459 37.666 L 27.629 37.936 L 28.979 38.116 L 30.328 38.116 L 31.768 38.027 L 33.298 37.757 L 34.918 37.307 L 36.628 36.857 L 38.338 36.228 L 40.048 35.598 L 41.848 34.79 L 43.738 33.891 L 45.538 32.902 L 47.247 31.913 L 48.867 30.835 L 50.487 29.846 L 52.017 28.857 L 53.457 27.868 L 54.807 26.968 L 55.077 27.778 L 53.457 28.767 L 51.837 29.756 L 50.217 30.655 L 48.778 31.555 L 47.247 32.453 L 45.897 33.262 L 44.458 34.071 L 43.108 34.79 L 41.848 35.42 L 40.588 36.048 L 39.328 36.677 L 38.068 37.217 L 36.808 37.666 L 35.638 38.116 L 34.468 38.476 L 33.298 38.836 L 30.868 39.195 L 28.708 39.106 L 26.819 38.655 L 25.199 37.847 L 23.849 36.857 L 22.859 35.598 L 22.139 34.161 L 21.779 32.722 L 21.599 31.373 L 21.689 30.026 L 21.779 28.767 L 22.139 27.508 L 22.589 26.43 L 23.129 25.351 L 23.849 24.452 L 24.749 23.642 L 25.649 22.923 L 26.819 22.385 L 27.989 22.025 L 29.338 21.845 L 30.778 21.845 L 32.398 22.025 L 34.018 22.385 L 35.818 23.013 L 37.258 23.642 L 38.608 24.362 L 39.958 25.081 L 41.308 25.98 L 42.658 26.968 L 44.097 27.958 L 45.448 28.947 L 46.798 29.936 L 45.267 31.373 L 45.267 31.373"/>
  <path id="path34" style="fill:#100f0d;fill-opacity:1;fill-rule:evenodd;stroke:none" d="M 54.807 26.968 L 55.977 26.25 L 57.057 25.621 L 58.137 25.081 L 59.127 24.632 L 60.117 24.272 L 61.107 24.002 L 62.007 23.912 L 62.907 23.912 L 64.885 24.362 L 66.055 25.351 L 66.595 26.61 L 66.685 27.958 L 66.235 29.396 L 65.515 30.655 L 64.527 31.555 L 63.445 32.003 L 62.097 32.092 L 60.477 32.003 L 58.587 31.555 L 56.697 30.835 L 54.897 29.666 L 53.367 28.048 L 52.197 25.891 L 51.657 23.103 L 51.657 19.328 L 52.107 16.002 L 53.187 13.125 L 54.627 10.608 L 56.517 8.721 L 58.857 7.282 L 61.465 6.293 L 64.527 5.933 L 66.865 6.023 L 69.025 6.383 L 70.915 7.012 L 72.625 7.821 L 74.065 8.81 L 75.415 9.888 L 76.585 11.057 L 77.575 12.226 L 77.215 13.395 L 75.955 12.046 L 74.515 10.698 L 72.985 9.528 L 71.365 8.451 L 69.655 7.731 L 67.855 7.192 L 65.967 6.922 L 64.075 7.102 L 59.847 8.451 L 56.877 10.698 L 54.807 13.665 L 53.637 16.991 L 53.187 20.497 L 53.367 23.732 L 53.997 26.52 L 54.897 28.497 L 55.797 29.486 L 57.147 30.205 L 58.677 30.745 L 60.297 30.925 L 61.917 30.835 L 63.357 30.475 L 64.435 29.846 L 65.065 28.947 L 65.157 27.868 L 64.797 26.968 L 64.075 26.25 L 62.907 25.801 L 61.465 25.621 L 59.847 25.711 L 58.137 26.16 L 56.337 27.06 L 55.977 27.238 L 55.707 27.418 L 55.437 27.598 L 55.077 27.778 L 54.807 26.968 L 54.807 26.968"/>
  <path id="path36" style="fill:#100f0d;fill-opacity:1;fill-rule:evenodd;stroke:none" d="M 166.219 29.576 L 161.269 29.396 L 156.77 29.396 L 152.54 29.576 L 148.58 30.026 L 144.89 30.655 L 141.47 31.373 L 138.232 32.273 L 135.262 33.351 L 132.382 34.61 L 129.682 35.868 L 127.072 37.307 L 124.642 38.836 L 122.212 40.453 L 119.872 42.161 L 117.443 43.87 L 115.103 45.667 L 113.032 47.106 L 110.963 48.275 L 109.073 49.083 L 107.183 49.623 L 105.474 49.982 L 103.763 49.982 L 102.234 49.893 L 100.793 49.533 L 99.443 49.083 L 98.183 48.453 L 97.103 47.646 L 96.114 46.836 L 95.304 45.847 L 94.584 44.858 L 94.044 43.87 L 93.594 42.791 L 93.234 41.172 L 93.594 41.083 L 94.224 41.891 L 94.853 42.971 L 95.843 44.14 L 96.833 45.128 L 98.004 46.027 L 99.173 46.746 L 100.524 47.195 L 101.963 47.556 L 103.494 47.646 L 105.204 47.465 L 107.093 47.106 L 109.073 46.476 L 111.323 45.578 L 113.753 44.498 L 116.272 43.061 L 119.153 41.352 L 122.212 39.285 L 125.452 36.947 L 128.062 35.15 L 130.672 33.621 L 133.282 32.273 L 135.8 31.195 L 138.322 30.385 L 140.93 29.666 L 143.45 29.127 L 145.97 28.767 L 148.49 28.497 L 151.009 28.317 L 153.53 28.227 L 161.089 28.227 L 163.609 28.317 L 166.219 28.317 L 167.209 28.497 L 167.298 28.857 L 166.938 29.306 L 166.219 29.576 L 166.219 29.576"/>
  <path id="path38" style="fill:#100f0d;fill-opacity:1;fill-rule:evenodd;stroke:none" d="M 122.212 31.373 L 120.952 32.273 L 119.693 33.172 L 118.433 34.071 L 117.083 34.97 L 115.733 35.778 L 114.382 36.498 L 112.943 37.217 L 111.593 37.847 L 110.153 38.386 L 108.623 38.836 L 107.183 39.195 L 105.653 39.375 L 104.214 39.465 L 102.683 39.465 L 101.153 39.285 L 99.624 39.016 L 96.024 37.577 L 93.594 35.42 L 92.154 32.902 L 91.524 30.205 L 91.794 27.328 L 92.604 24.721 L 93.863 22.295 L 95.574 20.407 L 96.294 20.137 L 96.744 20.137 L 96.924 20.317 L 96.744 20.586 L 95.124 21.935 L 93.684 23.912 L 92.694 26.34 L 92.244 29.037 L 92.514 31.733 L 93.774 34.071 L 96.204 36.048 L 99.894 37.217 L 101.423 37.397 L 102.953 37.487 L 104.484 37.487 L 105.834 37.307 L 107.273 37.037 L 108.623 36.677 L 109.973 36.318 L 111.233 35.778 L 112.493 35.15 L 113.753 34.521 L 114.923 33.891 L 116.093 33.172 L 117.262 32.362 L 118.433 31.555 L 119.602 30.745 L 120.683 29.936 L 122.212 31.373 L 122.212 31.373"/>
  <path id="path40" style="fill:#100f0d;fill-opacity:1;fill-rule:evenodd;stroke:none" d="M 122.212 31.373 L 123.112 30.655 L 124.013 29.936 L 124.912 29.216 L 125.722 28.497 L 126.532 27.868 L 127.342 27.238 L 128.152 26.61 L 128.962 25.98 L 130.402 24.991 L 131.932 24.182 L 133.372 23.553 L 134.902 23.103 L 136.342 22.923 L 137.69 22.833 L 139.04 23.013 L 140.3 23.283 L 141.47 23.822 L 142.46 24.542 L 143.36 25.441 L 144.08 26.52 L 144.62 27.778 L 144.98 29.216 L 145.07 30.745 L 144.98 32.543 L 144.71 33.801 L 144.26 34.97 L 143.63 35.868 L 142.91 36.677 L 141.92 37.217 L 140.93 37.666 L 139.76 37.936 L 138.5 38.116 L 137.15 38.116 L 135.622 38.027 L 134.092 37.757 L 132.472 37.307 L 130.852 36.857 L 129.142 36.228 L 127.432 35.598 L 125.632 34.79 L 123.742 33.891 L 121.942 32.902 L 120.143 31.913 L 118.522 30.835 L 116.992 29.846 L 115.463 28.857 L 114.022 27.868 L 112.583 26.968 L 112.402 27.778 L 114.022 28.767 L 115.642 29.756 L 117.173 30.655 L 118.703 31.555 L 120.143 32.453 L 121.582 33.262 L 122.932 34.071 L 124.282 34.79 L 125.632 35.42 L 126.892 36.048 L 128.152 36.677 L 129.322 37.217 L 130.58 37.666 L 131.752 38.116 L 132.922 38.476 L 134.092 38.836 L 136.52 39.195 L 138.68 39.106 L 140.572 38.655 L 142.192 37.847 L 143.54 36.857 L 144.62 35.598 L 145.34 34.161 L 145.7 32.722 L 145.88 31.373 L 145.79 30.026 L 145.7 28.767 L 145.34 27.508 L 144.89 26.43 L 144.35 25.351 L 143.63 24.452 L 142.73 23.642 L 141.74 22.923 L 140.66 22.385 L 139.4 22.025 L 138.05 21.845 L 136.612 21.845 L 135.082 22.025 L 133.46 22.385 L 131.662 23.013 L 130.22 23.642 L 128.872 24.362 L 127.522 25.081 L 126.172 25.98 L 124.822 26.968 L 123.383 27.958 L 122.033 28.947 L 120.683 29.936 L 122.212 31.373 L 122.212 31.373"/>
  <path id="path42" style="fill:#100f0d;fill-opacity:1;fill-rule:evenodd;stroke:none" d="M 112.583 26.968 L 111.413 26.25 L 110.333 25.621 L 109.343 25.081 L 108.263 24.632 L 107.273 24.272 L 106.373 24.002 L 105.383 23.912 L 104.484 23.912 L 102.594 24.362 L 101.333 25.351 L 100.793 26.61 L 100.793 27.958 L 101.244 29.396 L 101.963 30.655 L 102.953 31.555 L 104.033 32.003 L 105.383 32.092 L 107.003 32.003 L 108.893 31.555 L 110.783 30.835 L 112.493 29.666 L 114.022 28.048 L 115.193 25.891 L 115.733 23.103 L 115.733 19.328 L 115.282 16.002 L 114.293 13.125 L 112.853 10.608 L 110.963 8.721 L 108.623 7.282 L 105.923 6.293 L 102.953 5.933 L 100.524 6.023 L 98.453 6.383 L 96.473 7.012 L 94.853 7.821 L 93.324 8.81 L 92.064 9.888 L 90.894 11.057 L 89.814 12.226 L 90.265 13.395 L 91.524 12.046 L 92.873 10.698 L 94.404 9.528 L 96.024 8.451 L 97.823 7.731 L 99.624 7.192 L 101.514 6.922 L 103.403 7.102 L 107.543 8.451 L 110.603 10.698 L 112.673 13.665 L 113.843 16.991 L 114.203 20.497 L 114.113 23.732 L 113.483 26.52 L 112.583 28.497 L 111.593 29.486 L 110.333 30.205 L 108.713 30.745 L 107.093 30.925 L 105.563 30.835 L 104.123 30.475 L 102.953 29.846 L 102.323 28.947 L 102.234 27.868 L 102.594 26.968 L 103.403 26.25 L 104.573 25.801 L 106.013 25.621 L 107.633 25.711 L 109.343 26.16 L 111.143 27.06 L 111.413 27.238 L 111.773 27.418 L 112.042 27.598 L 112.402 27.778 L 112.583 26.968 L 112.583 26.968"/>
  <path id="path44" style="fill:#100f0d;fill-opacity:1;fill-rule:evenodd;stroke:none" d="M 83.695 2.158 L 84.325 2.517 L 85.135 3.057 L 86.035 3.686 L 86.934 4.585 L 87.924 5.753 L 88.914 7.192 L 89.904 9.08 L 90.894 11.417 L 91.524 13.935 L 91.524 16.272 L 91.164 18.34 L 90.444 20.047 L 89.544 21.216 L 88.554 21.755 L 87.744 21.665 L 87.114 20.766 L 87.025 20.137 L 87.025 19.418 L 87.295 18.52 L 87.655 17.62 L 88.104 16.631 L 88.734 15.552 L 89.454 14.473 L 90.265 13.395 L 89.814 12.226 L 89.364 12.856 L 88.914 13.485 L 88.554 14.113 L 88.104 14.653 L 87.204 16.091 L 86.574 17.71 L 86.124 19.328 L 86.035 20.856 L 86.124 22.205 L 86.574 23.193 L 87.474 23.732 L 88.734 23.732 L 90.084 23.013 L 91.074 21.665 L 91.794 19.957 L 92.334 17.89 L 92.514 15.642 L 92.424 13.395 L 92.064 11.237 L 91.524 9.35 L 90.714 7.731 L 89.814 6.203 L 88.734 4.855 L 87.655 3.596 L 86.484 2.428 L 85.494 1.438 L 84.505 0.63 L 83.695 0 L 82.884 0.63 L 81.985 1.438 L 80.905 2.428 L 79.824 3.596 L 78.655 4.855 L 77.665 6.203 L 76.675 7.731 L 75.865 9.35 L 75.325 11.237 L 74.965 13.395 L 74.965 15.642 L 75.145 17.89 L 75.595 19.957 L 76.405 21.665 L 77.395 23.013 L 78.745 23.732 L 80.005 23.732 L 80.814 23.193 L 81.264 22.205 L 81.444 20.856 L 81.264 19.328 L 80.814 17.71 L 80.185 16.091 L 79.375 14.653 L 78.925 14.113 L 78.475 13.485 L 78.025 12.856 L 77.575 12.226 L 77.215 13.395 L 78.025 14.473 L 78.745 15.552 L 79.375 16.631 L 79.824 17.62 L 80.185 18.52 L 80.365 19.418 L 80.365 20.137 L 80.275 20.766 L 79.644 21.665 L 78.834 21.755 L 77.845 21.216 L 77.035 20.047 L 76.315 18.34 L 75.865 16.272 L 75.865 13.935 L 76.495 11.417 L 77.485 9.08 L 78.475 7.192 L 79.465 5.753 L 80.454 4.585 L 81.444 3.686 L 82.254 3.057 L 83.065 2.517 L 83.695 2.158 L 83.695 2.158"/>
</svg>