<?xml version="1.0" encoding="utf-8"?>
<svg viewBox="0 0 43 112" xmlns="http://www.w3.org/2000/svg">
  <path id="path1404" style="fill:#100f0d;fill-opacity:1;fill-rule:evenodd;stroke:none" d="M 38.53 16.711 L 38.389 15.59 L 38.483 14.466 L 38.717 13.298 L 39.092 12.221 L 39.559 11.191 L 40.12 10.256 L 40.73 9.414 L 41.338 8.759 L 41.01 8.806 L 40.73 8.853 L 40.402 8.899 L 40.073 8.946 L 39.747 8.994 L 39.465 9.04 L 39.138 9.134 L 38.858 9.18 L 38.483 10.724 L 38.062 12.128 L 37.5 13.39 L 36.939 14.56 L 36.33 15.59 L 35.722 16.433 L 35.16 17.133 L 34.647 17.648 L 34.458 16.573 L 34.412 15.401 L 34.55 14.28 L 34.879 13.204 L 35.254 12.128 L 35.722 11.145 L 36.235 10.303 L 36.75 9.601 L 36.47 9.695 L 36.143 9.741 L 35.862 9.835 L 35.582 9.881 L 35.254 9.976 L 34.973 10.023 L 34.647 10.116 L 34.364 10.209 L 34.13 11.754 L 33.803 13.158 L 33.382 14.466 L 32.913 15.636 L 32.399 16.665 L 31.838 17.554 L 31.323 18.256 L 30.854 18.77 L 30.574 17.743 L 30.48 16.665 L 30.528 15.543 L 30.714 14.466 L 31.042 13.39 L 31.417 12.455 L 31.884 11.566 L 32.352 10.818 L 32.07 10.911 L 31.789 11.005 L 31.509 11.099 L 31.228 11.191 L 30.948 11.286 L 30.667 11.38 L 30.385 11.473 L 30.105 11.566 L 29.965 13.158 L 29.732 14.654 L 29.357 16.01 L 28.935 17.274 L 28.467 18.35 L 27.999 19.285 L 27.485 20.034 L 27.017 20.643 L 26.689 19.566 L 26.548 18.396 L 26.548 17.18 L 26.735 16.01 L 27.063 14.888 L 27.438 13.859 L 27.905 12.97 L 28.374 12.268 L 28.047 12.409 L 27.719 12.501 L 27.39 12.641 L 27.063 12.783 L 26.783 12.923 L 26.455 13.063 L 26.128 13.204 L 25.848 13.344 L 25.894 14.84 L 25.799 16.244 L 25.613 17.554 L 25.332 18.77 L 25.052 19.846 L 24.677 20.783 L 24.302 21.53 L 23.928 22.139 L 23.505 21.203 L 23.225 20.174 L 23.087 19.099 L 23.087 18.023 L 23.225 16.946 L 23.413 15.964 L 23.694 15.028 L 24.022 14.233 L 23.74 14.373 L 23.505 14.514 L 23.225 14.654 L 22.992 14.794 L 22.71 14.934 L 22.477 15.075 L 22.197 15.215 L 21.963 15.355 L 22.102 16.759 L 22.149 18.115 L 22.055 19.379 L 21.915 20.549 L 21.682 21.624 L 21.448 22.513 L 21.119 23.263 L 20.839 23.87 L 20.325 23.028 L 19.997 22.093 L 19.763 21.063 L 19.715 20.08 L 19.715 19.05 L 19.809 18.069 L 19.997 17.18 L 20.229 16.385 L 20.044 16.525 L 19.809 16.665 L 19.622 16.806 L 19.388 16.946 L 19.202 17.04 L 18.968 17.18 L 18.779 17.32 L 18.545 17.46 L 18.92 20.174 L 18.92 22.606 L 18.593 24.571 L 18.125 25.975 L 17.564 25.18 L 17.142 24.244 L 16.814 23.263 L 16.674 22.279 L 16.579 21.25 L 16.627 20.268 L 16.722 19.379 L 16.907 18.583 L 16.674 18.724 L 16.44 18.91 L 16.207 19.05 L 16.018 19.239 L 15.784 19.425 L 15.549 19.613 L 15.364 19.753 L 15.129 19.94 L 15.738 22.606 L 15.925 24.993 L 15.784 26.958 L 15.41 28.361 L 14.803 27.613 L 14.287 26.723 L 13.913 25.741 L 13.678 24.759 L 13.538 23.776 L 13.492 22.794 L 13.538 21.905 L 13.678 21.11 L 13.445 21.296 L 13.21 21.484 L 12.977 21.718 L 12.789 21.905 L 12.555 22.093 L 12.322 22.326 L 12.088 22.513 L 11.853 22.7 L 12.322 24.01 L 12.649 25.273 L 12.883 26.49 L 12.977 27.613 L 13.023 28.641 L 12.977 29.576 L 12.835 30.373 L 12.695 30.98 L 12.042 30.279 L 11.479 29.436 L 11.057 28.548 L 10.777 27.613 L 10.542 26.63 L 10.449 25.694 L 10.449 24.805 L 10.495 24.01 L 10.309 24.198 L 10.074 24.384 L 9.888 24.619 L 9.7 24.805 L 9.465 25.039 L 9.28 25.226 L 9.092 25.46 L 8.904 25.648 L 9.419 26.958 L 9.842 28.173 L 10.122 29.39 L 10.262 30.513 L 10.355 31.543 L 10.355 32.479 L 10.309 33.273 L 10.169 33.929 L 9.465 33.225 L 8.858 32.431 L 8.39 31.543 L 8.062 30.606 L 7.78 29.671 L 7.642 28.735 L 7.594 27.846 L 7.594 27.051 L 7.265 27.473 L 6.939 27.894 L 6.565 28.266 L 6.238 28.688 L 6.845 29.951 L 7.313 31.215 L 7.642 32.431 L 7.875 33.554 L 8.015 34.583 L 8.062 35.518 L 8.062 36.314 L 7.969 36.968 L 7.219 36.314 L 6.612 35.518 L 6.097 34.629 L 5.675 33.693 L 5.395 32.758 L 5.208 31.775 L 5.114 30.933 L 5.114 30.139 L 4.927 30.373 L 4.787 30.606 L 4.599 30.84 L 4.412 31.121 L 4.225 31.355 L 4.084 31.589 L 3.897 31.823 L 3.71 32.056 L 4.365 33.225 L 4.88 34.396 L 5.254 35.518 L 5.535 36.595 L 5.769 37.576 L 5.862 38.466 L 5.862 39.214 L 5.815 39.869 L 5.114 39.308 L 4.458 38.653 L 3.943 37.858 L 3.477 37.063 L 3.148 36.22 L 2.868 35.379 L 2.68 34.536 L 2.587 33.786 L 2.353 34.208 L 2.072 34.629 L 1.79 35.05 L 1.558 35.471 L 2.258 36.595 L 2.82 37.716 L 3.243 38.839 L 3.569 39.869 L 3.804 40.805 L 3.943 41.646 L 3.99 42.395 L 3.99 43.004 L 3.243 42.536 L 2.633 41.928 L 2.072 41.226 L 1.604 40.43 L 1.182 39.635 L 0.9 38.839 L 0.668 38.045 L 0.528 37.296 L 0.293 37.764 L 0.059 38.278 L -0.222 38.746 L -0.456 39.214 L 0.293 40.29 L 0.9 41.319 L 1.417 42.349 L 1.838 43.284 L 2.119 44.219 L 2.353 45.015 L 2.447 45.764 L 2.493 46.371 L 1.743 45.951 L 1.089 45.436 L 0.482 44.78 L -0.035 44.126 L -0.503 43.378 L -0.876 42.629 L -1.157 41.881 L -1.345 41.179 L -1.532 41.646 L -1.765 42.068 L -1.953 42.536 L -2.141 42.956 L -1.298 43.891 L -0.596 44.78 L 0.013 45.716 L 0.528 46.605 L 0.9 47.401 L 1.182 48.196 L 1.417 48.851 L 1.51 49.411 L 0.762 49.131 L 0.059 48.711 L -0.596 48.196 L -1.157 47.589 L -1.718 46.933 L -2.141 46.279 L -2.561 45.576 L -2.842 44.921 L -3.03 45.389 L -3.17 45.858 L -3.311 46.325 L -3.451 46.793 L -2.515 47.635 L -1.672 48.476 L -0.923 49.319 L -0.315 50.208 L 0.2 51.003 L 0.574 51.753 L 0.854 52.453 L 1.043 53.014 L 0.2 52.734 L -0.642 52.36 L -1.392 51.845 L -2.093 51.236 L -2.702 50.581 L -3.217 49.88 L -3.683 49.179 L -4.012 48.524 L -4.152 49.131 L -4.293 49.739 L -4.48 50.349 L -4.621 50.956 L -3.591 51.704 L -2.655 52.453 L -1.861 53.249 L -1.157 53.996 L -0.596 54.745 L -0.128 55.448 L 0.2 56.103 L 0.433 56.664 L -0.456 56.476 L -1.251 56.195 L -2.047 55.728 L -2.796 55.213 L -3.497 54.653 L -4.06 53.996 L -4.573 53.341 L -4.995 52.734 L -5.09 53.203 L -5.183 53.716 L -5.23 54.185 L -5.322 54.653 L -4.246 55.306 L -3.311 56.055 L -2.468 56.805 L -1.718 57.553 L -1.111 58.255 L -0.596 58.955 L -0.222 59.565 L 0.013 60.125 L -0.876 59.985 L -1.718 59.705 L -2.515 59.33 L -3.311 58.815 L -4.012 58.255 L -4.621 57.645 L -5.136 57.038 L -5.557 56.43 L -5.603 56.944 L -5.698 57.411 L -5.745 57.926 L -5.791 58.441 L -4.715 59.049 L -3.732 59.658 L -2.842 60.359 L -2.093 61.014 L -1.438 61.715 L -0.923 62.325 L -0.55 62.933 L -0.268 63.446 L -1.111 63.4 L -1.953 63.165 L -2.796 62.839 L -3.545 62.371 L -4.293 61.856 L -4.902 61.341 L -5.463 60.734 L -5.931 60.173 L -5.978 60.688 L -5.978 62.23 L -4.902 62.745 L -3.918 63.308 L -3.03 63.868 L -2.28 64.475 L -1.626 65.085 L -1.065 65.645 L -0.642 66.208 L -0.315 66.675 L -1.157 66.675 L -2 66.535 L -2.796 66.254 L -3.591 65.879 L -4.341 65.458 L -4.995 64.944 L -5.557 64.475 L -6.026 63.961 L -5.978 64.475 L -5.978 65.458 L -5.931 65.974 L -4.855 66.394 L -3.872 66.861 L -2.983 67.329 L -2.187 67.891 L -1.485 68.406 L -0.923 68.92 L -0.456 69.435 L -0.128 69.856 L -0.923 69.903 L -1.718 69.856 L -2.561 69.669 L -3.311 69.341 L -4.06 68.966 L -4.715 68.545 L -5.322 68.125 L -5.837 67.658 L -5.791 68.218 L -5.745 68.78 L -5.651 69.341 L -5.603 69.903 L -4.573 70.23 L -3.591 70.605 L -2.702 71.073 L -1.953 71.541 L -1.251 72.009 L -0.69 72.476 L -0.222 72.898 L 0.105 73.318 L -0.642 73.411 L -1.392 73.365 L -2.187 73.224 L -2.89 73.038 L -3.637 72.71 L -4.293 72.381 L -4.855 72.009 L -5.37 71.588 L -5.322 72.009 L -5.276 72.381 L -5.183 72.803 L -5.136 73.178 L -4.106 73.459 L -3.122 73.785 L -2.233 74.113 L -1.485 74.534 L -0.783 74.955 L -0.222 75.376 L 0.247 75.75 L 0.62 76.125 L -0.081 76.265 L -0.83 76.265 L -1.58 76.218 L -2.327 76.03 L -3.03 75.798 L -3.683 75.469 L -4.293 75.141 L -4.807 74.768 L -4.715 75.283 L -4.573 75.798 L -4.48 76.265 L -4.341 76.78 L -3.357 76.966 L -2.422 77.2 L -1.58 77.481 L -0.783 77.809 L -0.128 78.183 L 0.433 78.511 L 0.9 78.839 L 1.277 79.165 L 0.62 79.353 L -0.081 79.399 L -0.83 79.399 L -1.532 79.306 L -2.187 79.118 L -2.842 78.885 L -3.403 78.604 L -3.918 78.276 L -3.826 78.79 L -3.683 79.259 L -3.545 79.774 L -3.357 80.241 L -2.327 80.289 L -1.392 80.429 L -0.55 80.615 L 0.247 80.85 L 0.949 81.13 L 1.558 81.411 L 2.072 81.738 L 2.447 82.018 L 1.79 82.253 L 1.135 82.394 L 0.387 82.44 L -0.315 82.394 L -1.017 82.3 L -1.718 82.114 L -2.327 81.879 L -2.89 81.645 L -2.702 82.114 L -2.515 82.581 L -2.375 83.049 L -2.187 83.516 L -1.205 83.564 L -0.315 83.656 L 0.574 83.796 L 1.323 84.031 L 2.024 84.264 L 2.633 84.499 L 3.1 84.779 L 3.477 85.014 L 2.868 85.294 L 2.212 85.434 L 1.558 85.528 L 0.854 85.528 L 0.2 85.434 L -0.456 85.294 L -1.065 85.153 L -1.58 84.92 L -1.392 85.341 L -1.205 85.763 L -1.065 86.183 L -0.876 86.603 L 0.059 86.556 L 0.949 86.603 L 1.743 86.698 L 2.539 86.884 L 3.194 87.024 L 3.758 87.259 L 4.272 87.446 L 4.647 87.68 L 4.084 87.96 L 3.477 88.194 L 2.82 88.288 L 2.165 88.334 L 1.51 88.334 L 0.9 88.24 L 0.293 88.101 L -0.222 87.914 L 0.013 88.381 L 0.247 88.849 L 0.482 89.27 L 0.714 89.738 L 1.65 89.69 L 2.539 89.738 L 3.335 89.831 L 4.084 90.019 L 4.739 90.159 L 5.347 90.394 L 5.815 90.58 L 6.19 90.815 L 5.629 91.094 L 5.067 91.283 L 4.458 91.421 L 3.804 91.469 L 3.194 91.469 L 2.587 91.375 L 1.978 91.235 L 1.463 91.094 L 1.65 91.421 L 1.838 91.704 L 1.978 91.984 L 2.165 92.265 L 3.054 92.171 L 4.739 92.171 L 5.488 92.265 L 6.143 92.404 L 6.705 92.544 L 7.219 92.733 L 7.594 92.919 L 7.08 93.246 L 6.518 93.48 L 5.909 93.621 L 5.3 93.715 L 4.647 93.761 L 4.038 93.715 L 3.477 93.668 L 2.962 93.526 L 3.194 93.901 L 3.477 94.275 L 3.71 94.65 L 3.943 95.024 L 4.787 94.836 L 5.582 94.744 L 6.377 94.696 L 7.08 94.744 L 7.734 94.79 L 8.295 94.884 L 8.764 95.024 L 9.184 95.165 L 8.718 95.491 L 8.203 95.773 L 7.594 96.006 L 7.033 96.146 L 6.423 96.193 L 5.862 96.24 L 5.3 96.193 L 4.787 96.146 L 5.019 96.521 L 5.3 96.85 L 5.582 97.224 L 5.815 97.55 L 6.612 97.41 L 7.36 97.318 L 8.109 97.27 L 8.764 97.27 L 9.373 97.364 L 9.888 97.456 L 10.355 97.55 L 10.73 97.691 L 10.309 98.018 L 9.842 98.253 L 9.327 98.439 L 8.764 98.579 L 8.249 98.674 L 7.219 98.674 L 6.752 98.626 L 6.985 98.954 L 7.265 99.281 L 7.5 99.563 L 7.78 99.889 L 8.577 99.703 L 9.327 99.609 L 10.028 99.563 L 10.684 99.563 L 11.245 99.609 L 11.807 99.656 L 12.227 99.749 L 12.603 99.889 L 12.227 100.218 L 11.759 100.498 L 11.292 100.685 L 10.777 100.871 L 10.262 100.966 L 9.747 101.013 L 9.28 101.013 L 8.812 100.966 L 8.999 101.153 L 9.184 101.388 L 9.373 101.574 L 9.607 101.808 L 9.794 101.994 L 9.98 102.228 L 10.169 102.416 L 10.355 102.603 L 11.01 102.93 L 11.573 103.305 L 12.134 103.773 L 12.555 104.288 L 12.977 104.801 L 13.257 105.363 L 13.492 105.924 L 13.632 106.486 L 13.069 106.486 L 12.462 106.345 L 11.899 106.065 L 11.338 105.69 L 10.823 105.223 L 10.355 104.755 L 9.98 104.194 L 9.607 103.679 L 9.373 103.444 L 9.138 103.211 L 8.858 102.93 L 8.623 102.696 L 8.39 102.463 L 8.155 102.228 L 7.923 101.948 L 7.688 101.714 L 7.688 102.228 L 7.642 102.79 L 7.5 103.351 L 7.265 103.913 L 6.985 104.426 L 6.612 104.848 L 6.143 105.223 L 5.629 105.456 L 5.582 104.615 L 5.723 103.491 L 6.097 102.135 L 6.752 100.685 L 6.472 100.356 L 6.238 100.076 L 6.004 99.796 L 5.769 99.516 L 5.723 100.03 L 5.629 100.591 L 5.488 101.106 L 5.254 101.62 L 4.927 102.088 L 4.552 102.509 L 4.084 102.838 L 3.569 103.07 L 3.569 102.228 L 3.758 101.059 L 4.13 99.749 L 4.787 98.346 L 4.552 98.018 L 4.365 97.738 L 4.13 97.41 L 3.897 97.129 L 3.85 97.691 L 3.758 98.253 L 3.569 98.814 L 3.335 99.374 L 3.008 99.843 L 2.633 100.264 L 2.165 100.638 L 1.604 100.871 L 1.558 100.451 L 1.604 99.936 L 1.65 99.374 L 1.79 98.72 L 1.932 98.018 L 2.212 97.318 L 2.493 96.521 L 2.915 95.773 L 2.68 95.445 L 2.447 95.071 L 2.212 94.744 L 1.978 94.369 L 1.885 94.931 L 1.743 95.539 L 1.51 96.1 L 1.182 96.661 L 0.808 97.175 L 0.339 97.596 L -0.175 97.924 L -0.783 98.111 L -0.783 97.691 L -0.737 97.175 L -0.596 96.568 L -0.408 95.914 L -0.175 95.211 L 0.2 94.464 L 0.574 93.715 L 1.089 92.966 L 0.9 92.639 L 0.714 92.358 L 0.528 92.03 L 0.339 91.704 L 0.2 92.311 L 0.013 92.919 L -0.268 93.526 L -0.596 94.089 L -1.065 94.604 L -1.58 95.024 L -2.187 95.304 L -2.842 95.491 L -2.796 95.024 L -2.702 94.51 L -2.515 93.901 L -2.28 93.246 L -1.953 92.544 L -1.532 91.796 L -1.017 91.048 L -0.456 90.299 L -0.642 89.925 L -0.876 89.551 L -1.065 89.13 L -1.298 88.755 L -1.438 89.364 L -1.626 89.925 L -1.907 90.534 L -2.28 91.048 L -2.702 91.516 L -3.17 91.936 L -3.732 92.218 L -4.387 92.358 L -4.341 91.89 L -4.246 91.375 L -4.06 90.766 L -3.826 90.111 L -3.497 89.411 L -3.122 88.661 L -2.608 87.914 L -2.047 87.165 L -2.233 86.791 L -2.375 86.416 L -2.515 86.041 L -2.702 85.668 L -2.89 86.276 L -3.122 86.884 L -3.451 87.493 L -3.872 88.054 L -4.341 88.521 L -4.902 88.896 L -5.51 89.176 L -6.212 89.316 L -6.118 88.849 L -5.978 88.288 L -5.745 87.68 L -5.463 86.978 L -5.09 86.276 L -4.621 85.528 L -4.06 84.779 L -3.403 84.031 L -3.545 83.656 L -3.683 83.281 L -3.826 82.861 L -3.965 82.486 L -4.2 83.095 L -4.48 83.703 L -4.855 84.264 L -5.276 84.779 L -5.791 85.246 L -6.352 85.62 L -7.008 85.855 L -7.71 85.949 L -7.617 85.481 L -7.43 84.92 L -7.195 84.311 L -6.821 83.61 L -6.398 82.908 L -5.883 82.16 L -5.276 81.411 L -4.573 80.661 L -4.715 80.241 L -4.855 79.774 L -4.995 79.353 L -5.136 78.885 L -5.416 79.494 L -5.745 80.054 L -6.165 80.615 L -6.68 81.083 L -7.241 81.504 L -7.85 81.831 L -8.506 81.971 L -9.255 82.018 L -9.113 81.55 L -8.88 81.036 L -8.552 80.429 L -8.131 79.82 L -7.617 79.118 L -7.055 78.464 L -6.352 77.761 L -5.603 77.108 L -5.698 76.639 L -5.791 76.171 L -5.931 75.704 L -6.026 75.235 L -6.352 75.844 L -6.773 76.451 L -7.241 77.014 L -7.85 77.481 L -8.46 77.901 L -9.16 78.183 L -9.863 78.323 L -10.658 78.323 L -10.471 77.855 L -10.191 77.294 L -9.77 76.685 L -9.302 76.03 L -8.738 75.376 L -8.037 74.721 L -7.288 74.066 L -6.398 73.411 L -6.445 73.038 L -6.541 72.663 L -6.587 72.288 L -6.68 71.914 L -7.055 72.523 L -7.476 73.13 L -8.037 73.691 L -8.645 74.16 L -9.302 74.58 L -10.048 74.815 L -10.845 74.955 L -11.641 74.861 L -11.406 74.394 L -11.08 73.833 L -10.611 73.224 L -10.096 72.615 L -9.441 71.961 L -8.692 71.306 L -7.85 70.651 L -6.913 70.043 L -6.961 69.575 L -7.008 69.06 L -7.055 68.593 L -7.102 68.078 L -7.522 68.685 L -8.037 69.295 L -8.645 69.856 L -9.302 70.324 L -10.002 70.651 L -10.752 70.885 L -11.595 70.931 L -12.39 70.838 L -12.11 70.37 L -11.735 69.809 L -11.267 69.201 L -10.658 68.593 L -9.956 67.939 L -9.16 67.281 L -8.271 66.675 L -7.241 66.114 L -7.288 65.645 L -7.288 64.195 L -7.756 64.804 L -8.318 65.364 L -8.973 65.879 L -9.722 66.346 L -10.517 66.628 L -11.313 66.814 L -12.156 66.814 L -12.998 66.628 L -12.671 66.16 L -12.25 65.599 L -11.687 65.038 L -11.032 64.429 L -10.237 63.821 L -9.395 63.26 L -8.365 62.698 L -7.288 62.184 L -7.288 60.826 L -7.241 60.359 L -7.756 60.968 L -8.412 61.529 L -9.113 61.996 L -9.91 62.418 L -10.706 62.651 L -11.595 62.793 L -12.436 62.745 L -13.325 62.464 L -12.952 61.996 L -12.483 61.483 L -11.875 60.921 L -11.126 60.359 L -10.283 59.798 L -9.302 59.283 L -8.271 58.769 L -7.102 58.348 L -7.055 57.88 L -7.008 57.459 L -6.961 57.038 L -6.913 56.57 L -7.476 57.131 L -8.177 57.693 L -8.926 58.114 L -9.722 58.488 L -10.563 58.675 L -11.453 58.769 L -12.343 58.675 L -13.186 58.348 L -12.81 57.88 L -12.296 57.411 L -11.641 56.898 L -10.845 56.336 L -9.956 55.821 L -8.927 55.306 L -7.85 54.885 L -6.633 54.511 L -6.541 54.044 L -6.445 53.623 L -6.398 53.155 L -6.306 52.688 L -6.913 53.249 L -7.617 53.763 L -8.412 54.185 L -9.255 54.511 L -10.143 54.699 L -11.032 54.745 L -11.967 54.605 L -12.81 54.231 L -12.39 53.763 L -11.828 53.295 L -11.126 52.781 L -10.331 52.313 L -9.348 51.799 L -8.318 51.331 L -7.148 50.956 L -5.883 50.629 L -5.745 50.068 L -5.603 49.553 L -5.463 48.993 L -5.322 48.429 L -5.978 48.898 L -6.726 49.365 L -7.568 49.693 L -8.412 49.928 L -9.348 50.021 L -10.237 49.974 L -11.08 49.739 L -11.921 49.271 L -11.453 48.898 L -10.845 48.476 L -10.096 48.056 L -9.255 47.635 L -8.271 47.214 L -7.195 46.886 L -5.978 46.605 L -4.715 46.419 L -4.48 45.764 L -4.293 45.109 L -4.06 44.454 L -3.826 43.799 L -4.527 44.313 L -5.322 44.78 L -6.258 45.109 L -7.195 45.343 L -8.225 45.389 L -9.206 45.296 L -10.143 44.969 L -10.986 44.408 L -10.752 44.219 L -10.471 44.033 L -10.191 43.845 L -9.816 43.659 L -9.441 43.471 L -9.021 43.331 L -8.552 43.144 L -8.083 43.004 L -7.568 42.816 L -7.008 42.723 L -6.445 42.583 L -5.837 42.489 L -5.23 42.395 L -4.573 42.349 L -3.918 42.301 L -3.217 42.301 L -2.983 41.74 L -2.748 41.179 L -2.515 40.57 L -2.28 40.009 L -3.076 40.43 L -3.918 40.759 L -4.902 40.991 L -5.931 41.085 L -6.913 40.991 L -7.897 40.711 L -8.787 40.29 L -9.582 39.589 L -9.302 39.449 L -9.021 39.308 L -8.692 39.166 L -8.318 39.026 L -7.897 38.886 L -7.43 38.746 L -6.961 38.653 L -6.445 38.559 L -5.931 38.466 L -5.37 38.371 L -4.761 38.325 L -2.89 38.325 L -2.187 38.371 L -1.532 38.466 L -1.298 37.951 L -1.017 37.435 L -0.737 36.921 L -0.456 36.406 L -1.251 36.735 L -2.187 36.921 L -3.122 37.063 L -4.106 37.016 L -5.041 36.828 L -5.978 36.5 L -6.773 35.985 L -7.476 35.239 L -7.195 35.096 L -6.913 35.004 L -6.541 34.864 L -6.165 34.77 L -5.745 34.675 L -5.322 34.583 L -4.855 34.536 L -4.341 34.443 L -3.826 34.396 L -2.093 34.396 L -1.485 34.443 L -0.83 34.489 L -0.175 34.583 L 0.482 34.724 L 0.762 34.255 L 1.043 33.835 L 1.323 33.414 L 1.604 32.946 L 0.762 33.225 L -0.175 33.366 L -1.111 33.46 L -2.093 33.366 L -3.03 33.133 L -3.918 32.758 L -4.715 32.196 L -5.37 31.401 L -5.09 31.308 L -4.761 31.168 L -4.433 31.074 L -4.06 30.98 L -3.637 30.933 L -3.17 30.84 L -2.702 30.794 L -2.187 30.794 L -1.626 30.746 L -1.065 30.746 L -0.503 30.794 L 0.105 30.84 L 0.714 30.933 L 1.369 31.026 L 2.024 31.168 L 2.68 31.308 L 2.962 30.933 L 3.243 30.559 L 3.477 30.139 L 3.758 29.764 L 2.915 29.951 L 1.978 29.998 L 1.089 29.951 L 0.154 29.764 L -0.737 29.483 L -1.58 29.015 L -2.28 28.408 L -2.89 27.613 L -2.608 27.519 L -2.28 27.426 L -1.907 27.379 L -1.485 27.285 L -1.065 27.238 L -0.596 27.191 L 0.9 27.191 L 1.463 27.238 L 2.072 27.285 L 2.633 27.379 L 3.243 27.473 L 3.897 27.613 L 4.504 27.799 L 5.162 27.986 L 5.488 27.565 L 5.815 27.191 L 6.19 26.77 L 6.518 26.349 L 5.629 26.49 L 4.693 26.584 L 3.71 26.49 L 2.774 26.303 L 1.838 25.928 L 0.997 25.46 L 0.293 24.759 L -0.268 23.916 L 0.013 23.823 L 0.339 23.776 L 0.714 23.73 L 1.135 23.683 L 1.558 23.635 L 2.539 23.635 L 3.054 23.683 L 3.615 23.73 L 4.178 23.776 L 4.787 23.87 L 5.395 24.01 L 6.004 24.151 L 6.658 24.338 L 7.265 24.525 L 7.923 24.759 L 8.109 24.571 L 8.295 24.384 L 8.484 24.198 L 8.67 24.056 L 8.812 23.87 L 8.999 23.683 L 9.184 23.495 L 9.373 23.309 L 8.484 23.403 L 7.548 23.403 L 6.612 23.263 L 5.629 23.028 L 4.739 22.653 L 3.943 22.093 L 3.243 21.391 L 2.727 20.503 L 3.008 20.454 L 3.382 20.408 L 3.758 20.36 L 4.178 20.314 L 5.067 20.314 L 5.582 20.36 L 6.097 20.408 L 6.658 20.503 L 7.219 20.595 L 7.827 20.735 L 8.437 20.875 L 9.045 21.063 L 9.7 21.25 L 10.309 21.484 L 10.964 21.765 L 11.152 21.578 L 11.338 21.438 L 11.525 21.25 L 11.759 21.063 L 11.947 20.875 L 12.134 20.735 L 12.322 20.549 L 12.508 20.408 L 11.619 20.454 L 10.684 20.36 L 9.747 20.174 L 8.812 19.846 L 7.969 19.379 L 7.173 18.77 L 6.565 18.023 L 6.097 17.133 L 6.377 17.086 L 6.752 17.04 L 7.548 17.04 L 7.969 17.086 L 8.437 17.086 L 8.952 17.18 L 9.513 17.274 L 10.028 17.368 L 10.588 17.508 L 11.199 17.648 L 11.807 17.883 L 12.414 18.069 L 13.023 18.35 L 13.678 18.63 L 14.287 18.958 L 14.522 18.77 L 14.707 18.63 L 14.942 18.443 L 15.129 18.303 L 15.364 18.115 L 15.549 17.975 L 15.784 17.789 L 16.018 17.648 L 15.083 17.648 L 14.099 17.46 L 13.118 17.226 L 12.18 16.806 L 11.338 16.29 L 10.588 15.59 L 9.98 14.794 L 9.56 13.813 L 9.888 13.765 L 10.215 13.765 L 10.638 13.813 L 11.057 13.813 L 11.525 13.905 L 11.994 13.999 L 12.508 14.093 L 13.069 14.233 L 13.632 14.373 L 14.193 14.56 L 14.754 14.794 L 15.364 15.028 L 15.972 15.355 L 16.579 15.636 L 17.235 16.01 L 17.844 16.385 L 18.032 16.244 L 18.218 16.104 L 18.452 15.964 L 18.639 15.823 L 18.873 15.683 L 19.06 15.543 L 19.294 15.45 L 19.482 15.309 L 18.545 15.215 L 17.564 15.028 L 16.627 14.654 L 15.692 14.186 L 14.849 13.578 L 14.099 12.83 L 13.538 11.94 L 13.21 10.911 L 13.538 10.911 L 13.913 10.958 L 14.287 11.005 L 14.754 11.051 L 15.175 11.145 L 15.692 11.286 L 16.207 11.426 L 16.722 11.613 L 17.283 11.848 L 17.844 12.08 L 18.405 12.363 L 18.968 12.641 L 19.575 12.97 L 20.183 13.344 L 20.744 13.765 L 21.354 14.186 L 21.587 14.046 L 21.822 13.951 L 22.055 13.813 L 22.29 13.718 L 22.477 13.578 L 22.71 13.438 L 22.944 13.344 L 23.179 13.204 L 22.244 13.016 L 21.26 12.736 L 20.325 12.268 L 19.435 11.706 L 18.639 11.005 L 17.937 10.163 L 17.468 9.228 L 17.235 8.151 L 17.564 8.198 L 17.937 8.245 L 18.359 8.339 L 18.779 8.431 L 19.248 8.573 L 19.715 8.759 L 20.229 8.946 L 20.744 9.18 L 21.26 9.414 L 21.822 9.695 L 22.383 10.023 L 22.944 10.398 L 23.553 10.77 L 24.115 11.191 L 24.677 11.659 L 25.238 12.174 L 25.472 12.08 L 25.705 11.988 L 25.94 11.848 L 26.22 11.754 L 26.455 11.659 L 26.689 11.566 L 26.924 11.426 L 27.157 11.333 L 26.22 11.005 L 25.332 10.538 L 24.443 9.976 L 23.648 9.274 L 22.944 8.479 L 22.429 7.589 L 22.055 6.56 L 21.963 5.485 L 22.29 5.578 L 22.664 5.671 L 23.038 5.813 L 23.459 5.953 L 23.88 6.139 L 24.348 6.374 L 24.817 6.654 L 25.332 6.935 L 25.848 7.263 L 26.362 7.589 L 26.877 8.01 L 27.39 8.431 L 27.905 8.853 L 28.42 9.366 L 28.935 9.881 L 29.45 10.444 L 29.732 10.303 L 30.059 10.209 L 30.339 10.116 L 30.667 10.023 L 30.948 9.881 L 31.228 9.789 L 31.557 9.695 L 31.838 9.601 L 30.9 9.274 L 29.918 8.759 L 29.028 8.151 L 28.187 7.403 L 27.485 6.56 L 26.97 5.578 L 26.642 4.549 L 26.548 3.379 L 27.252 3.614 L 28.047 3.941 L 28.982 4.456 L 29.918 5.064 L 30.948 5.813 L 31.978 6.701 L 33.008 7.778 L 33.989 8.946 L 34.27 8.899 L 34.598 8.806 L 34.879 8.759 L 35.16 8.666 L 35.44 8.62 L 35.722 8.526 L 36.05 8.479 L 36.33 8.385 L 35.393 7.964 L 34.458 7.403 L 33.569 6.701 L 32.774 5.906 L 32.118 4.97 L 31.65 3.941 L 31.417 2.818 L 31.417 1.649 L 32.118 1.929 L 32.913 2.35 L 33.803 2.911 L 34.739 3.614 L 35.722 4.456 L 36.704 5.438 L 37.687 6.606 L 38.577 7.87 L 38.858 7.824 L 39.184 7.778 L 39.465 7.73 L 39.747 7.684 L 40.027 7.638 L 40.308 7.589 L 40.635 7.543 L 40.915 7.496 L 40.027 7.029 L 39.138 6.374 L 38.295 5.578 L 37.593 4.689 L 36.985 3.706 L 36.612 2.631 L 36.47 1.508 L 36.564 0.339 L 37.265 0.666 L 38.108 1.228 L 38.997 1.883 L 39.98 2.771 L 40.915 3.8 L 41.899 4.97 L 42.788 6.328 L 43.63 7.824 L 43.163 9.461 L 42.602 10.958 L 41.945 12.315 L 41.244 13.53 L 40.495 14.608 L 39.793 15.496 L 39.138 16.198 L 38.53 16.711 L 38.53 16.711" transform="matrix(-0.956305, 0.292371, -0.292371, -0.956305, 45.259176, 100.060987)"/>
</svg>